<?xml version="1.0" encoding="UTF-8"?>
<svg xmlns="http://www.w3.org/2000/svg" version="1.1" viewBox="0 0 2500 2500">
  <!-- Generator: Adobe Illustrator 28.7.7, SVG Export Plug-In . SVG Version: 1.2.0 Build 194)  -->
  <g>
    <g id="Background">
      <rect width="2500" height="2500" style="fill: #fff;"/>
    </g>
    <g id="Illustration">
      <g id="Ketogenic_diet">
        <g>
          <g>
            <g>
              <path d="M1215.905,1818.929c-7.37-19.132-55.441-146.67-32.246-221.474,3.227-10.407,8.238-26.57,22.87-39.461,29.225-25.749,58.819-4.958,82.079-23.754,30.677-24.789-4.307-74.276,29.147-145.779,8.024-17.149,20.517-43.852,48.077-57.296,30.772-15.011,48.655,1.955,79.017-9.609,37.859-14.42,33.774-49.835,69.384-85.242,37.513-37.3,110.746-66.305,164.83-36.882,47.16,25.656,61.877,86.009,59.658,127.314-3.279,61.028-45.166,110.925-89.028,133.963-63.05,33.117-126.894,9.007-135.324,32.99-7.85,22.331,47.169,44.182,44.323,85.996-1.988,29.197-31.481,57.735-61.622,65.116-41.775,10.231-66.038-24.771-90.965-11.428-26.138,13.991-11.576,58.961-30.259,99.749-15.41,33.643-55.65,69.273-159.941,85.797Z" style="fill: #fff;"/>
              <path d="M1215.904,1821.135c-.9,0-1.726-.552-2.058-1.414-13.182-34.216-54.469-151.412-32.295-222.92,3.354-10.817,8.422-27.163,23.519-40.463,16.373-14.426,33.168-14.791,47.985-15.112,12.364-.268,24.042-.521,34.167-8.703,14.005-11.317,13.492-28.091,12.782-51.307-.767-25.101-1.723-56.34,15.752-93.69,8.302-17.743,20.847-44.558,49.109-58.343,16.782-8.187,30.022-7.155,42.824-6.158,11.574.902,22.501,1.753,36.376-3.531,20.861-7.946,28.375-22.246,37.888-40.351,7.139-13.588,15.232-28.987,30.725-44.394,41.012-40.778,114.852-65.865,167.441-37.256,45.475,24.74,63.307,82.802,60.806,129.371-3.609,67.158-50.849,115.127-90.206,135.798-33.958,17.836-68.499,19.302-93.72,20.372-21.536.914-37.095,1.574-40.548,11.397-3.112,8.854,5.901,18.518,16.338,29.708,13.244,14.201,29.726,31.874,28.105,55.706-1.97,28.939-30.365,59.044-63.298,67.11-22.342,5.471-39.546-1.48-54.726-7.614-13.758-5.561-24.623-9.951-35.722-4.012-13.737,7.354-15.403,24.122-17.512,45.351-1.644,16.55-3.507,35.308-11.782,53.373-20.138,43.968-74.509,73.258-161.602,87.057-.115.018-.232.027-.346.027ZM1394.583,1326.764c-8.506,0-17.34,1.29-27.784,6.384-26.86,13.102-39.008,39.066-47.046,56.248-17.029,36.396-16.092,67.053-15.338,91.685.721,23.566,1.29,42.181-14.419,54.874-11.296,9.128-23.706,9.397-36.844,9.682-14.749.32-30,.651-45.163,14.011-14.167,12.481-19.015,28.114-22.222,38.458-21.839,70.429,21.018,190.67,31.559,218.359,84.509-13.663,137.163-42.006,156.514-84.254,7.968-17.395,9.793-35.764,11.403-51.971,2.149-21.646,4.007-40.34,19.821-48.805,12.923-6.916,25.81-1.704,39.459,3.811,14.56,5.885,31.065,12.551,52.023,7.42,30.676-7.513,58.127-36.42,59.946-63.123,1.491-21.922-13.608-38.112-26.931-52.396-11.414-12.238-21.272-22.808-17.274-34.181,4.444-12.642,21.256-13.355,44.525-14.342,24.803-1.052,58.772-2.493,91.855-19.87,38.332-20.134,84.341-66.819,87.851-132.129,2.426-45.183-14.723-101.437-58.509-125.257-50.776-27.624-122.354-3.13-162.219,36.509-15.014,14.928-22.939,30.01-29.93,43.316-9.553,18.181-17.802,33.883-40.224,42.423-14.8,5.637-26.741,4.706-38.289,3.806-4.279-.334-8.479-.66-12.762-.66Z"/>
            </g>
            <path d="M1214.388,1804.868c-.151,0-.305-.016-.459-.049-1.193-.252-1.954-1.423-1.702-2.615,15.971-75.459,46.921-147.806,91.99-215.033,36.037-53.754,81.13-104.37,134.027-150.442,90.049-78.432,172.686-117.022,173.51-117.403,1.105-.507,2.418-.028,2.928,1.078.511,1.106.029,2.418-1.078,2.928-.82.379-82.98,38.761-172.566,116.814-82.598,71.965-188.595,193.356-224.493,362.971-.22,1.038-1.137,1.75-2.157,1.75Z"/>
          </g>
          <g>
            <g>
              <path d="M1215.906,1818.929c-92.434-210.36-80.306-302.299-46.963-346.824,9.951-13.29,33.377-38.016,47.601-80.844,18.446-55.548,3.482-87.552,5.336-133.652,3.625-90.171,69.271-176.461,142.099-218.038,50.875-29.043,148.764-61.11,208.913-13.592,25.434,20.093,50.967,59.826,39.742,88.49-16.062,41.017-96.215,18.515-134.486,73.673-20.883,30.096-3.148,45.338-25.591,77.106-35.366,50.061-95.86,35.504-107.882,71.026-11.643,34.404,42.682,57.046,34.963,101.203-8.805,50.372-82.939,57.212-86.105,105.75-1.883,28.901,24.012,32.427,25.46,65.999,1.761,40.848-35.616,57.931-70.26,118.652-19.426,34.047-27.516,66.29-32.827,91.052Z" style="fill: #fff;"/>
              <path d="M1215.905,1821.135c-.867,0-1.665-.512-2.019-1.319-42.167-95.963-65.996-175.47-70.828-236.313-3.835-48.304,4.28-86.229,24.118-112.721,1.552-2.073,3.43-4.423,5.548-7.073,11.156-13.958,29.827-37.319,41.725-73.143,12.077-36.368,9.694-62.157,7.172-89.461-1.267-13.709-2.577-27.885-1.946-43.585,3.904-97.118,76.972-182.05,143.21-219.865,49.231-28.107,149.154-62.56,211.375-13.407,24.125,19.059,52.618,59.9,40.429,91.026-8.024,20.487-30.34,25.759-56.181,31.862-27.594,6.517-58.87,13.904-78.546,42.264-9.911,14.283-10.814,24.934-11.77,36.209-1.011,11.919-2.056,24.242-13.832,40.912-18.959,26.836-45.508,35.689-66.841,42.801-19.77,6.592-35.385,11.799-40.753,27.659-5.338,15.773,4.099,28.852,15.024,43.996,11.307,15.671,24.121,33.432,20.022,56.88-4.508,25.79-25.278,40.381-45.366,54.492-20.147,14.153-39.178,27.522-40.71,51.021-.889,13.627,4.634,21.103,11.029,29.761,6.412,8.68,13.679,18.519,14.433,35.999,1.098,25.473-12.29,41.733-30.82,64.237-12.217,14.838-26.064,31.655-39.727,55.603-18.626,32.643-26.925,64.027-32.587,90.422-.2.936-.982,1.636-1.934,1.733-.074.007-.15.011-.224.011ZM1495.052,1003.823c-48.445,0-99.246,20.119-129.98,37.664-65.214,37.231-137.152,120.771-140.988,216.21-.619,15.407.678,29.435,1.931,43.001,2.566,27.777,4.992,54.013-7.376,91.258-12.147,36.573-31.127,60.319-42.466,74.508-2.086,2.609-3.935,4.922-5.464,6.963-43.045,57.482-28.069,171.317,44.501,338.396,5.715-25.281,14.228-54.581,31.607-85.041,13.85-24.275,27.825-41.246,40.154-56.221,17.906-21.747,30.843-37.459,29.818-61.242-.696-16.133-7.243-24.996-13.574-33.568-6.622-8.964-12.876-17.432-11.884-32.67,1.67-25.609,22.467-40.218,42.578-54.345,19.352-13.594,39.362-27.651,43.555-51.64,3.778-21.614-7.931-37.844-19.254-53.538-11.156-15.462-21.692-30.066-15.626-47.992,6.071-17.938,23.433-23.727,43.537-30.431,21.801-7.269,46.51-15.508,64.632-41.161,11.085-15.691,12.034-26.886,13.039-38.739.963-11.357,1.959-23.101,12.541-38.353,20.642-29.75,52.792-37.344,81.159-44.043,24.632-5.818,45.905-10.842,53.085-29.176,10.178-25.993-12.347-64.855-39.056-85.954-21.936-17.33-48.823-23.887-76.471-23.887Z"/>
            </g>
            <path d="M1213.529,1799.6c-1.146,0-2.115-.886-2.199-2.047-6.949-96.016-2.312-193.051,13.783-288.408,13.973-82.782,36.036-159.945,63.805-223.145,42.663-97.098,95.813-157.26,132.889-190.632,40.262-36.24,70.929-49.68,71.234-49.811,1.115-.483,2.416.033,2.899,1.152.483,1.119-.032,2.417-1.151,2.9-1.2.518-120.894,53.958-201.831,238.166-61.342,139.611-90.211,330.063-77.225,509.459.087,1.216-.826,2.272-2.042,2.36-.054.004-.109.006-.162.006Z"/>
          </g>
        </g>
        <g>
          <g>
            <path d="M1673.848,1203.178c-.926,31.205-5.162,62.786-13.039,94.316-59.081,236.465-298.668,380.263-535.133,321.182-236.466-59.081-380.263-298.668-321.183-535.133,59.081-236.465,298.668-380.263,535.133-321.182l49.53-198.235c-345.948-86.435-696.462,123.941-782.898,469.888-86.434,345.947,123.941,696.461,469.887,782.897,345.948,86.435,696.462-123.94,782.897-469.887,12.336-49.372,18.603-98.833,19.316-147.61l-204.511,3.766Z" style="fill: #fff;"/>
            <path d="M1233.802,1838.632c-52.693,0-105.746-6.478-158.191-19.581-167.888-41.947-309.391-146.762-398.445-295.137-89.052-148.375-114.996-322.548-73.049-490.435,41.947-167.887,146.762-309.39,295.136-398.444,148.375-89.054,322.549-114.996,490.436-73.05.568.142,1.056.504,1.358,1.006.302.502.391,1.102.249,1.67l-49.53,198.235c-.296,1.183-1.502,1.899-2.675,1.606-234.911-58.695-473.766,84.669-532.458,319.576-58.691,234.907,84.671,473.766,319.576,532.458,35.587,8.891,71.281,13.145,106.408,13.147,196.751.009,376.249-133.403,426.05-332.723,7.674-30.712,12.038-62.287,12.975-93.846.034-1.177.988-2.119,2.165-2.141l204.511-3.766c.681-.01,1.176.222,1.598.643.424.422.658.998.65,1.596-.727,49.716-7.248,99.548-19.382,148.112-41.947,167.887-146.761,309.391-295.137,398.444-102.026,61.235-216.254,92.63-332.245,92.631ZM1232.7,547.002c-288.304,0-551.327,195.478-624.301,487.546-86.001,344.213,124.069,694.218,468.281,780.221,166.744,41.662,339.732,15.895,487.095-72.551,147.365-88.447,251.466-228.986,293.126-395.73,11.867-47.494,18.328-96.206,19.213-144.827l-200.128,3.685c-1.074,31.175-5.457,62.344-13.037,92.682-59.283,237.267-300.546,382.069-537.808,322.788-237.267-59.282-382.07-300.541-322.789-537.809,28.717-114.936,100.474-211.811,202.053-272.778,100.944-60.587,219.341-78.503,333.613-50.539l48.461-193.955c-51.434-12.666-103.013-18.733-153.78-18.733Z"/>
          </g>
          <g>
            <path d="M1479.852,726.689c-15.318,24.07-26.3,50.304-39.394,74.411,147.141,78.377,238.349,234.759,233.39,402.078l204.511-3.766c3.547-242.368-130.6-467.714-344.927-580.315-12.955,25.353-26.175,50.869-40.34,76.699-4.413,11.033-8.826,19.859-13.24,30.892Z"/>
            <path d="M1673.848,1205.385c-.589,0-1.154-.236-1.569-.655-.425-.429-.655-1.013-.637-1.617,4.899-165.278-86.253-322.312-232.222-400.066-.519-.276-.906-.749-1.075-1.312-.17-.564-.107-1.171.173-1.688,4.813-8.861,9.445-18.222,13.923-27.275,7.749-15.664,15.761-31.859,25.438-47.093,2.197-5.48,4.422-10.488,6.576-15.332,2.161-4.863,4.396-9.892,6.586-15.369.033-.083.072-.164.114-.242,14.819-27.024,28.693-53.908,40.31-76.642.268-.525.736-.921,1.297-1.099.567-.179,1.172-.124,1.695.15,105.557,55.456,193.746,139.248,255.036,242.32,61.325,103.13,92.816,220.693,91.071,339.98-.017,1.19-.976,2.152-2.166,2.174l-204.511,3.766c-.014,0-.027,0-.041,0ZM1443.452,800.2c71.762,38.69,131.426,96.559,172.647,167.477,41.277,71.016,62.01,151.617,60.018,233.253l200.064-3.684c2.664-238.232-131.249-463.571-341.802-575.153-11.403,22.3-24.896,48.4-39.289,74.648-2.206,5.507-4.44,10.535-6.603,15.399-2.161,4.863-4.396,9.892-6.586,15.37-.052.127-.114.249-.188.365-9.6,15.085-17.589,31.235-25.317,46.854-4.17,8.43-8.472,17.126-12.945,25.472ZM1479.852,726.689h.021-.021Z"/>
          </g>
          <g>
            <path d="M1524.339,636.819c3.051-5.917,6.079-11.824,9.093-17.721-44.776-23.524-93.024-42.167-144.276-54.972l-49.53,198.235c35.878,8.964,69.606,22.106,100.832,38.74,13.093-24.106,24.076-50.34,39.394-74.411,4.413-11.033,8.826-19.859,13.24-30.892,10.87-19.822,21.183-39.458,31.248-58.978Z" style="fill: #fff;"/>
            <path d="M1440.456,803.307c-.35,0-.705-.083-1.035-.26-31.626-16.846-65.381-29.814-100.329-38.546-.568-.142-1.056-.504-1.358-1.005-.302-.502-.391-1.103-.249-1.671l49.53-198.235c.142-.568.503-1.056,1.005-1.357.502-.301,1.105-.391,1.67-.249,50.328,12.575,99.035,31.133,144.768,55.16,1.07.562,1.488,1.881.938,2.958-3.015,5.9-6.044,11.809-9.097,17.728-11.729,22.748-21.649,41.472-31.21,58.911-2.206,5.507-4.44,10.534-6.603,15.398-2.161,4.863-4.396,9.892-6.586,15.37-.052.127-.114.249-.188.365-9.6,15.085-17.589,31.235-25.317,46.854-4.496,9.09-9.146,18.489-13.999,27.425-.4.736-1.158,1.154-1.941,1.154ZM1342.301,760.76c33.824,8.628,66.52,21.19,97.256,37.366,4.441-8.287,8.729-16.953,12.885-25.354,7.749-15.664,15.761-31.859,25.438-47.093,2.197-5.48,4.422-10.488,6.576-15.332,2.161-4.863,4.396-9.892,6.586-15.369.033-.083.072-.164.114-.242,9.563-17.438,19.484-36.163,31.222-58.928,2.714-5.264,5.41-10.52,8.094-15.768-44.21-23.035-91.191-40.936-139.71-53.235l-48.461,193.955ZM1479.852,726.689h.021-.021Z"/>
          </g>
        </g>
        <g>
          <path d="M1102.428,689.366c4.654-1.904,21.525-7.057,31.887-22.776,7.324-11.112,12.85-29.712,4.555-40.997-2.072-2.819-8.864-10.429-40.997-9.111-40.727,1.672-69.35,15.14-69.35,15.14-66.358,31.224-80.372,69.829-134.497,99.88-69.308,38.481-103.122,5.684-133.24,38.719-48.94,53.682-30.259,200.779,66.051,260.787,65.047,40.529,166.879,41.692,212.957-9.11,75.233-82.946,6.497-309.562,62.634-332.532Z"/>
          <g>
            <g>
              <polygon points="1129.209 1820.813 1126.849 1908.585 1095.85 1911.935 1080.512 1817.48 1129.209 1820.813" style="fill: #fff;"/>
              <path d="M1095.848,1914.142c-1.069,0-2.001-.775-2.176-1.853l-15.338-94.455c-.108-.665.094-1.343.547-1.84s1.096-.768,1.782-.715l48.697,3.332c1.18.08,2.087,1.078,2.055,2.261l-2.36,87.772c-.029,1.104-.87,2.016-1.968,2.134l-30.999,3.35c-.081.009-.16.013-.239.013ZM1083.135,1819.872l14.557,89.645,27.003-2.918,2.251-83.728-43.811-2.998Z"/>
            </g>
            <g>
              <polygon points="1305.115 1849.629 1310.061 1919.54 1269.095 1922.891 1254.471 1849.629 1305.115 1849.629" style="fill: #fff;"/>
              <path d="M1269.093,1925.097c-1.042,0-1.954-.736-2.161-1.774l-14.624-73.262c-.129-.648.038-1.32.457-1.831.419-.511,1.046-.808,1.707-.808h50.644c1.158,0,2.119.895,2.201,2.051l4.947,69.911c.085,1.206-.816,2.256-2.021,2.355l-40.966,3.351c-.061.005-.122.007-.182.007ZM1257.161,1851.836l13.713,68.695,36.832-3.013-4.647-65.683h-45.898Z"/>
            </g>
            <g>
              <path d="M1258.146,1953.001c-2.841-1.89-4.569-5.076-4.658-8.487-.268-10.257-.302-32.108,3.836-40.319,5.49-10.892,28.137,4.291,28.137,4.291,0,0,13.256-18.37,21.018-22.235,4.018-2,27.524,13.65,51.221,34.983,25.969,23.377,37.694,30.835,43.292,50.991,2.627,9.459-4.32,18.971-14.111,19.672-23.851,1.707-71.988-1.147-128.736-38.896Z"/>
              <path d="M1376.383,1994.469c-26.238,0-69.61-6.471-119.459-39.631-3.424-2.278-5.534-6.115-5.643-10.266-.308-11.822-.189-32.916,4.072-41.369,1.218-2.416,3.257-4.059,5.897-4.753,7.708-2.021,19.149,4.294,23.661,7.067,3.543-4.722,13.786-17.856,20.584-21.241,6.771-3.377,36.524,19.873,53.681,35.318,4.093,3.685,7.833,6.973,11.248,9.978,18.513,16.283,27.804,24.456,32.694,42.062,1.409,5.073.454,10.482-2.621,14.842-3.143,4.456-8.048,7.234-13.458,7.621-3.139.224-6.703.371-10.656.371ZM1264.55,1902.464c-.78,0-1.513.08-2.181.256-1.439.378-2.417,1.163-3.075,2.469-2.795,5.544-4.107,19.857-3.602,39.268.071,2.717,1.446,5.224,3.675,6.708,56.27,37.43,103.959,40.21,127.357,38.531,4.084-.292,7.79-2.392,10.167-5.763,2.309-3.273,3.029-7.326,1.976-11.118-4.538-16.34-13.5-24.224-31.357-39.929-3.427-3.015-7.179-6.315-11.286-10.012-26.204-23.588-45.847-35.052-48.935-34.585-5.794,2.909-16.44,16.501-20.038,21.488-.696.963-2.029,1.203-3.018.542-3.552-2.378-13.238-7.856-19.683-7.856Z"/>
            </g>
            <path d="M1365.264,1975.546c-24.838,0-65.322-5.862-104.522-37.144-.953-.76-1.109-2.149-.349-3.101.762-.952,2.152-1.108,3.101-.349,60.649,48.395,124.282,34.336,124.915,34.189,1.181-.276,2.373.461,2.649,1.648.276,1.186-.46,2.372-1.646,2.649-.243.057-9.462,2.107-24.148,2.107Z"/>
            <g>
              <path d="M1141.455,1929.928l-.453-48.055s-9.635-14.577-22.847-2.729c0,0-12.215-17.127-34.885,4.223,0,0-31.903,59.467-46.024,94.836-3.78,9.467,2.976,19.845,13.168,20.083,14.641.341,33.578-.446,41.824-6.022,12.888-8.715,34.955-36.191,44.574-48.569,3.06-3.938,4.69-8.78,4.643-13.767Z"/>
              <path d="M1056.311,2000.564c-1.919,0-3.903-.024-5.95-.072-5.559-.13-10.506-2.868-13.575-7.513-3.05-4.617-3.645-10.447-1.59-15.594,14.005-35.079,45.809-94.466,46.128-95.061.113-.21.259-.4.432-.564,8.722-8.214,17.079-11.997,24.846-11.228,5.811.57,9.762,3.575,11.781,5.558,3.9-2.962,7.912-4.201,11.952-3.681,7.623.979,12.311,7.949,12.506,8.246.235.355.362.77.366,1.196l.454,48.055h0c.051,5.462-1.764,10.839-5.108,15.142-11.348,14.605-32.294,40.398-45.08,49.043-6.359,4.3-18.845,6.472-37.162,6.472ZM1085.045,1884.729c-2.536,4.747-32.366,60.772-45.749,94.293-1.542,3.862-1.114,8.063,1.173,11.525,2.261,3.421,5.904,5.438,9.997,5.533,20.067.471,34.462-1.537,40.537-5.644,12.737-8.612,35.061-36.504,44.067-48.095,2.737-3.521,4.221-7.922,4.179-12.393l-.447-47.345c-1.068-1.377-4.44-5.239-9.055-5.819-3.287-.417-6.695.933-10.119,4.003-.467.42-1.097.622-1.715.551-.624-.069-1.189-.401-1.554-.912-.14-.191-3.633-4.89-10.263-5.508-6.343-.594-13.43,2.709-21.051,9.811Z"/>
            </g>
            <path d="M1118.168,1907.256c-1.219,0-2.207-.987-2.208-2.206l-.013-25.905c-.001-1.219.987-2.207,2.206-2.208,1.219,0,2.207.987,2.208,2.206l.013,25.905c.001,1.219-.987,2.207-2.206,2.208Z"/>
            <path d="M1317.552,1853.599s11.688-176.47-7.491-335.2c-19.18-158.729-90.522-385.401-90.522-385.401,0,0-76.757-3.483-132.629,4.025-55.873,7.509-77.985-.216-77.985-.216,0,0-41.711,47.758-38.306,137.546,3.404,89.788,100.731,468.524,97.043,557.416,0,0,32.732,16.449,75.128,8.274l-17.571-510.429s36.359,105.078,53.426,177.062c13.914,58.686,38.051,96.647,38.051,96.647,0,0-1.025,136.42,30.285,249.643,0,0,36.984,11.573,70.573.633Z"/>
            <path d="M1256.181,1664.087c-.702,0-1.393-.335-1.821-.957l-26.802-39.003c-.69-1.005-.435-2.378.569-3.069,1.004-.69,2.38-.435,3.069.569l26.802,39.003c.69,1.005.435,2.378-.569,3.069-.381.262-.817.388-1.248.388Z" style="fill: #fff;"/>
            <path d="M1075.919,1569.257c-9.287,0-21.069-1.809-30.887-9.093-.979-.726-1.184-2.109-.458-3.087s2.107-1.184,3.087-.458c17.436,12.935,42.792,6.669,43.044,6.604,1.184-.303,2.382.412,2.684,1.593.301,1.181-.413,2.382-1.593,2.683-.544.139-7.096,1.757-15.876,1.757Z" style="fill: #fff;"/>
          </g>
          <g>
            <g>
              <path d="M1460.592,749.988s34.687-32.168,44.562-40.366c11.232-9.325-14.464-12.395-47.386,17.766l2.824,22.6Z" style="fill: #fff;"/>
              <path d="M1460.593,752.195c-.254,0-.51-.044-.755-.133-.778-.283-1.332-.978-1.434-1.8l-2.824-22.6c-.088-.709.171-1.418.699-1.901,22.663-20.762,43.064-26.695,50.303-24.283,2.543.848,3.214,2.525,3.387,3.449.384,2.047-.762,4.198-3.406,6.393-9.716,8.066-44.124,39.965-44.47,40.286-.415.385-.954.589-1.501.589ZM1460.1,728.251l2.148,17.197c8.818-8.152,33.333-30.748,41.497-37.524,1.343-1.114,1.73-1.829,1.839-2.112-2.584-1.913-21.138.468-45.484,22.439Z"/>
            </g>
            <g>
              <path d="M1463.491,743.471c.203,1.78.426,3.558.743,5.322.536,2.98,1.263,10.194-3.059,14.781-4.211,4.47-24.615,15.566-34.246,20.676-3.294,1.748-6.188,4.135-8.512,7.043-3.211,4.019,5.512,46.653,5.512,46.653l-35.016-12.518s4.199-58.181,11.887-81.819c7.689-23.639,27.991-34.856,33.24-34.121,5.249.735,6.853,10.799,6.853,10.799,0,0,11.378-8.776,18.277-4.081,3.617,2.461,1.862,6.634,2.426,10.666l1.894,16.601Z" style="fill: #fff;"/>
              <path d="M1423.929,840.152c-.25,0-.501-.042-.742-.129l-35.016-12.518c-.933-.334-1.53-1.248-1.459-2.237.172-2.386,4.306-58.72,11.99-82.343,7.862-24.171,28.597-36.606,35.645-35.623,4.593.644,6.906,5.821,7.964,9.376,4.18-2.535,12.212-6.305,18.101-2.298,3.525,2.399,3.401,6.009,3.302,8.909-.04,1.153-.078,2.242.067,3.275l1.902,16.656c.191,1.666.409,3.447.723,5.181.583,3.241,1.398,11.354-3.624,16.685-4.323,4.589-23.669,15.197-34.817,21.112-3.053,1.62-5.686,3.797-7.823,6.472-1.366,2.867,2.002,25.537,5.95,44.833.16.781-.113,1.587-.715,2.109-.407.353-.923.54-1.446.54ZM1391.242,823.916l29.752,10.637c-3.276-16.514-7.405-40.753-4.301-44.638,2.517-3.148,5.613-5.71,9.202-7.614,18.287-9.703,30.876-17.27,33.673-20.24,3.647-3.87,2.959-10.294,2.493-12.877-.334-1.857-.565-3.723-.764-5.462h0s-1.894-16.602-1.894-16.602c-.191-1.357-.142-2.752-.1-3.982.101-2.961.01-4.168-1.374-5.11-4.56-3.102-12.872,1.84-15.691,4.006-.615.473-1.435.587-2.159.301-.722-.287-1.241-.932-1.365-1.7-.446-2.759-2.251-8.581-4.98-8.963-4.159-.566-23.529,10.148-30.835,32.618-6.795,20.891-10.899,69.949-11.658,79.626Z"/>
            </g>
            <path d="M1431.941,766.576c-.729,0-1.468-.1-2.203-.304-4.27-1.185-8.975-6.203-9.378-16.734-.603-15.809,19.096-30.93,19.936-31.566.973-.736,2.353-.546,3.09.425.737.97.546,2.354-.423,3.091-.188.142-18.708,14.371-18.192,27.882.311,8.164,3.506,11.917,6.147,12.65,1.825.504,3.605-.345,4.901-2.327,4.109-6.278,3.206-12.547,3.197-12.61-.185-1.204.641-2.331,1.846-2.516,1.187-.184,2.331.64,2.516,1.846.05.324,1.16,8.019-3.865,15.697-1.88,2.871-4.653,4.466-7.571,4.466Z"/>
          </g>
          <g>
            <g>
              <path d="M1135.819,807.097c-14.453-2.365-24.814-15.226-24.05-29.852l1.186-22.717c13.711-1.07,25.124-7.605,25.09-11.942-.017-2.113-5.051-22.754-8.195-31.286,2.655-2.164,5.887-8.12.162-11.767-5.723-3.646-18.581-26.871-18.581-26.871-15.861-18.44-20.446,7.546-32.295,9.713-8.201,1.499-12.654,6.494-9.555,17.218,3.097,10.725-2.794,5.346-8.83,2.287-6.036-3.058-10.14-.68-6.828,9.07,3.311,9.751,15.381,15.607,15.381,15.607l5.719,11.231-12.057,55.223c-2.28,10.441-9.782,18.967-19.847,22.557l-16.611,5.925,87.311,45.719,42.17-56.812-20.17-3.302Z" style="fill: #fff;"/>
              <path d="M1113.819,869.417c-.347,0-.697-.081-1.023-.252l-87.311-45.72c-.777-.407-1.239-1.235-1.178-2.109.062-.874.635-1.63,1.46-1.924l16.611-5.924c9.41-3.357,16.302-11.189,18.433-20.95l11.889-54.453-5.038-9.895c-2.73-1.457-12.693-7.305-15.827-16.533-1.96-5.767-1.706-9.773.753-11.906,1.217-1.057,4.027-2.442,9.161.159,1.127.572,2.251,1.22,3.314,1.836.94.544,2.21,1.279,3.123,1.694-.075-.642-.269-1.661-.725-3.236-1.643-5.689-1.393-10.325.746-13.779,1.99-3.215,5.534-5.308,10.534-6.221,3.49-.639,6.567-4.21,9.542-7.664,3.668-4.257,7.459-8.658,12.769-8.658h.003c3.862.001,7.803,2.402,12.051,7.341.098.114.184.238.257.37,4.867,8.79,14.012,23.643,17.835,26.079,3.266,2.081,4.08,4.735,4.189,6.595.169,2.909-1.244,5.726-2.981,7.637,3.158,9.195,7.827,28.2,7.846,30.666.046,5.9-11.943,12.433-25.193,13.971l-1.086,20.819c-.707,13.525,8.838,25.373,22.203,27.56l20.171,3.301c.76.124,1.4.635,1.688,1.349.289.713.185,1.526-.274,2.144l-42.17,56.812c-.428.577-1.092.891-1.772.891ZM1031.999,821.875l81.173,42.505,38.887-52.389-16.597-2.716c-15.588-2.551-26.722-16.371-25.896-32.145l1.185-22.716c.057-1.107.927-1.999,2.032-2.085,13.356-1.042,23.073-7.362,23.055-9.724-.091-1.997-4.899-21.968-8.059-30.541-.325-.885-.054-1.878.677-2.474,1.306-1.064,2.634-3.201,2.525-5.066-.072-1.228-.777-2.252-2.155-3.13-5.881-3.747-17.423-24.242-19.213-27.462-3.253-3.74-6.133-5.636-8.56-5.637h-.002c-3.286,0-6.267,3.461-9.424,7.125-3.476,4.034-7.069,8.206-12.093,9.125-3.72.68-6.27,2.095-7.575,4.203-1.454,2.348-1.54,5.79-.258,10.231,1.153,3.989,1.518,6.959-.445,8.494-2.172,1.698-4.923.106-8.403-1.908-.994-.576-2.044-1.184-3.099-1.719-2.244-1.138-3.767-1.203-4.274-.762-.544.472-1.044,2.51.533,7.153,2.968,8.742,14.145,14.278,14.257,14.333.431.21.783.556,1.001.983l5.719,11.231c.232.454.299.975.19,1.472l-12.057,55.223c-2.459,11.259-10.407,20.292-21.262,24.165l-11.862,4.231Z"/>
            </g>
            <path d="M1107.969,757.346c-12.956,0-18.657-11.893-18.721-12.029-.514-1.105-.034-2.418,1.07-2.932,1.103-.512,2.411-.037,2.928,1.064.235.496,5.903,12.094,19.197,8.932,1.184-.284,2.376.45,2.657,1.637.282,1.185-.45,2.375-1.635,2.657-1.96.466-3.792.672-5.496.672Z"/>
          </g>
          <g>
            <path d="M1431.233,830.492c-14.97-8.308-35.088-14.577-53.224-18.6-3.568,13.475-.401,3.364-8.706,25.079-16.104,42.109-24.156,63.162-38.873,66.408-18.018,3.973-41.491-17.723-58.987-49.303l-19.494-22.524c-11.142-12.874-25.509-22.55-41.627-28.036-45.627-3.968-84.445-2.141-113.851.939-38.361,4.019-67.398,10.865-79.272,13.844-29.048,7.287-53.968,16.094-75.44,24.73-.009.005-122.895,71.59-120.617,186.359,2.277,114.773,74.859,152.607,74.859,152.607l40.794-56.141s-76.283-83.358,36.436-159.377c-4.651,51.375-20.102,186.099-5.445,202.514,9.102,10.195,27.537,8.392,64.036,4.37,57.007-6.282,66.794-19.147,103.631-22.776,65.663-6.469,92.659,28.683,116.159,12.527,14.296-9.828,26.099-37.818,4.892-124.18-5.03-23.878-9.992-47.947-14.884-72.196,53.104,38.782,106.933,51.221,138.644,30.741,19.671-12.704,28.506-36.571,36.01-56.844,18.092-48.876,19.413-87.98,14.959-110.139Z" style="fill: #fff;"/>
            <path d="M896.001,1184.199c-.346,0-.695-.081-1.019-.25-.737-.384-73.769-39.766-76.046-154.519-2.287-115.298,120.501-187.628,121.742-188.326.083-.047.169-.088.259-.124,25.902-10.418,50.673-18.538,75.727-24.823,24.903-6.247,52.421-11.053,79.579-13.898,37.659-3.944,76.105-4.262,114.271-.943.178.016.352.052.52.109,16.472,5.607,31.197,15.524,42.585,28.681l19.494,22.523c.099.116.188.241.261.375,17.922,32.35,40.639,51.727,56.582,48.218,13.555-2.989,21.486-23.725,37.286-65.038,2.727-7.13,4.22-10.839,5.121-13.076q1.313-3.26,2.159-6.567c.31-1.214.729-2.854,1.354-5.216.303-1.144,1.456-1.845,2.611-1.589,12.378,2.745,35.828,8.841,53.818,18.824.566.314.964.86,1.092,1.495,2.159,10.745,7.457,50.529-15.053,111.34-7.393,19.972-16.595,44.829-36.883,57.931-31.489,20.336-83.472,9.746-136.568-27.536,4.502,22.242,9.128,44.646,13.77,66.683,17.308,70.48,15.416,111.867-5.801,126.453-12.161,8.36-25.323,3.961-41.985-1.61-18.472-6.176-41.47-13.862-75.207-10.539-16.436,1.619-27.27,5.058-39.815,9.039-15.167,4.814-32.359,10.27-63.792,13.734-36.031,3.971-55.877,6.159-65.923-5.094-12.406-13.895-5.472-97.072,2.691-181.075.656-6.751,1.26-12.954,1.77-18.418-33.88,23.828-52.803,50.637-56.257,79.734-4.919,41.433,23.789,73.345,24.08,73.662.708.774.774,1.938.157,2.787l-40.794,56.141c-.428.588-1.099.909-1.786.909ZM942.736,845.013c-2.522,1.489-31.577,18.945-60.695,49.839-27.416,29.088-59.852,76.032-58.691,134.491,2.031,102.419,61.348,143.22,72.039,149.742l38.592-53.111c-5.649-6.726-28.646-36.813-24.017-75.795,3.742-31.518,24.613-60.296,62.036-85.534.707-.477,1.624-.503,2.356-.07.734.434,1.152,1.25,1.075,2.098-.589,6.511-1.352,14.359-2.206,23.136-5.574,57.348-15.948,164.094-3.792,177.709,8.184,9.169,24.967,7.743,62.148,3.647,30.998-3.417,47.968-8.802,62.94-13.554,12.782-4.057,23.82-7.56,40.716-9.225,34.677-3.417,59.164,4.768,77.04,10.745,16.705,5.585,27.739,9.273,38.085,2.159,19.255-13.238,20.6-54.229,3.998-121.836-5.042-23.936-10.051-48.232-14.904-72.286-.18-.893.207-1.804.974-2.294.765-.491,1.755-.461,2.491.076,53.155,38.821,105.326,50.576,136.145,30.669,19.054-12.305,27.599-35.39,35.138-55.756,21.454-57.957,17.248-96.172,15.059-107.936-12.492-6.767-30.012-12.909-49.662-17.415-.338,1.296-.596,2.306-.805,3.122-.909,3.558-.932,3.624-2.34,7.122-.896,2.225-2.381,5.913-5.092,13.001-16.367,42.794-24.582,64.273-40.459,67.774-18.076,3.985-42.127-15.707-61.281-50.188l-19.344-22.35c-10.816-12.498-24.788-21.936-40.417-27.305-37.794-3.27-75.869-2.949-113.162.958-26.954,2.823-54.26,7.592-78.965,13.79-24.806,6.223-49.339,14.261-75.001,24.575Z"/>
          </g>
          <g>
            <path d="M930.346,1134.729l39.335,35.72,19.217-30.964,55.259-13.633s-2.139,15.048-30.491,18.72l45.757-1.004s-6.819,12.896-35.374,11.367l29.378,5.006s-19.028,4.28-28.225,8.23l-9.197,3.951s-9.346,5.772-15.484,12.79c-6.138,7.019-15.994,14.812-29.27,17.136-13.277,2.324-70.176-27.032-70.176-27.032l29.273-40.285Z" style="fill: #fff;"/>
            <path d="M969.677,1204.372c-16.031,0-63.976-24.486-69.616-27.396-.572-.295-.987-.825-1.136-1.451s-.016-1.286.362-1.807l29.273-40.285c.368-.507.935-.833,1.559-.898.621-.067,1.244.14,1.71.561l37.373,33.939,17.82-28.713c.304-.49.787-.841,1.346-.979l55.259-13.633c.711-.176,1.465.013,2.008.505.544.492.808,1.222.706,1.947-.073.511-1.557,9.636-14.727,15.809l27.76-.609c.753-.039,1.514.381,1.926,1.047.41.666.439,1.499.072,2.191-.226.429-4.447,8.04-18.795,11.254l11.218,1.911c1.039.177,1.808,1.064,1.835,2.117.028,1.054-.693,1.98-1.722,2.211-.188.043-18.935,4.281-27.838,8.105l-9.04,3.882c-1.14.722-9.397,6.048-14.852,12.283-4.824,5.516-15.208,15.171-30.55,17.857-.582.102-1.237.151-1.952.151ZM904.374,1174.225c17.172,8.717,56.682,27.377,66.494,25.649,14.006-2.452,23.547-11.337,27.989-16.415,6.286-7.187,15.594-12.972,15.987-13.215.093-.057.189-.107.289-.15l9.197-3.95c4.842-2.081,12.212-4.218,18.261-5.811l-18.914-3.223c-1.153-.197-1.952-1.258-1.822-2.42.13-1.162,1.125-2.012,2.311-1.959,17.295.925,26.112-3.53,30.205-6.846l-40.657.893c-1.206.039-2.161-.871-2.249-2.04-.088-1.17.753-2.203,1.917-2.354,17.905-2.319,24.658-9.14,27.162-13.368l-50.246,12.397-18.742,30.201c-.345.557-.92.931-1.569,1.021-.656.092-1.306-.111-1.79-.552l-37.513-34.065-26.31,36.208Z"/>
          </g>
        </g>
        <g>
          <g>
            <g>
              <path d="M1939.376,647.907s45.086-29.985,48.024-39.512c2.937-9.527-30.619-46.377-8.094-67.291,23.026-21.379,53.193-2.249,50.225,46.121,0,0,56.455-1.947,49.735,28.907-6.242,28.655-38.342,27.593-48.861,23.39-20.22-8.08-55.058,53.691-55.058,53.691l-35.97-45.306Z" style="fill: #fff;"/>
              <path d="M1975.346,695.42c-.67,0-1.308-.305-1.728-.835l-35.97-45.306c-.384-.484-.547-1.106-.451-1.716.096-.61.444-1.152.958-1.494,17.179-11.425,45.166-31.933,47.137-38.324.698-2.264-2.397-8.653-5.39-14.832-7.368-15.209-18.502-38.193-2.097-53.425,9.965-9.252,21.633-11.738,32.016-6.827,14.693,6.951,23.035,26.884,22.032,52.328,8.237.011,35.049,1.062,45.715,13.843,4.065,4.871,5.361,10.85,3.854,17.77-2.254,10.35-7.837,17.954-16.593,22.603-12.19,6.473-27.949,5.28-35.243,2.365-15.113-6.042-42.89,36.015-52.317,52.727-.361.64-1.016,1.058-1.749,1.116-.058.004-.116.007-.173.007ZM1942.591,648.409l32.464,40.89c7.746-13.204,36.648-59.621,56.168-51.826,6.505,2.599,20.587,3.646,31.536-2.165,7.557-4.012,12.385-10.621,14.35-19.644,1.22-5.598.261-10.178-2.931-14.003-11.038-13.228-44.244-12.242-44.572-12.229-.646.025-1.223-.221-1.657-.666-.434-.446-.66-1.053-.622-1.674,1.814-29.566-8.83-45.441-19.396-50.44-8.666-4.1-18.552-1.887-27.126,6.071-14.013,13.012-4.143,33.389,3.065,48.267,3.975,8.205,6.846,14.133,5.636,18.057-2.812,9.123-37.373,32.928-46.917,39.363Z"/>
            </g>
            <path d="M2046.73,608.366c-3.84,0-10.748-.721-15.324-5.379-3.683-3.751-5.049-9.159-4.06-16.074.172-1.207,1.294-2.046,2.496-1.872,1.207.172,2.045,1.29,1.872,2.497-.782,5.473.169,9.627,2.828,12.344,4.942,5.048,14.363,3.973,14.456,3.961,1.212-.146,2.308.713,2.458,1.921.149,1.208-.708,2.308-1.916,2.458-.139.017-1.207.143-2.81.143Z"/>
            <path d="M1955.317,629.953s-20.118,6.733-146.02,13.724c-51.296,2.849-115.915,40.283-109.52,118.527s93.76,163.651,180.09,126.493c86.33-37.158,95.762-154.105,103.369-181.657,6.606-23.928,13.48-36.428,13.48-36.428l-17.778-3.879-1.107-18.486-20.521,3.156-1.993-21.45Z"/>
            <path d="M1876.05,730.389c40.743,53.636,44.707,119.196,8.852,146.432-35.854,27.236-103.691,11.914-144.434-41.722-40.744-53.637-38.965-125.277-3.111-152.513,35.855-27.236,97.949-5.833,138.693,47.803Z" style="fill: #fff;"/>
            <path d="M1815.277,782.914c8.857,12.111,10.83,25.737,4.405,30.436-6.424,4.699-18.813-1.31-27.67-13.421-8.857-12.111-10.83-25.737-4.405-30.436s18.813,1.31,27.67,13.421Z"/>
            <path d="M1921.901,805.748c-1.045,0-1.974-.746-2.169-1.81-22.473-122.903-116.721-143.033-117.67-143.222-1.195-.238-1.972-1.399-1.735-2.593.237-1.195,1.401-1.971,2.591-1.736,1.004.198,24.908,5.097,51.978,25.674,24.922,18.944,57.154,55.329,69.178,121.083.219,1.199-.575,2.348-1.775,2.568-.134.025-.267.037-.399.037Z" style="fill: #fff;"/>
          </g>
          <g>
            <g>
              <path d="M2058.203,799.263c-20.009,37.872-58.506,48.29-90.323,31.48-31.817-16.81-44.905-54.484-24.896-92.355,20.009-37.871,65.539-61.6,97.356-44.79,31.817,16.81,37.873,67.794,17.864,105.665Z" style="fill: #fff;"/>
              <path d="M1998.487,840.723c-10.745,0-21.554-2.702-31.638-8.029-16.318-8.621-28.026-22.689-32.971-39.612-5.191-17.771-2.717-37.041,7.154-55.725,9.966-18.864,26.459-34.85,45.247-43.86,19.805-9.499,39.368-10.156,55.09-1.851,31.729,16.764,40.506,67.533,18.784,108.647-9.872,18.685-24.395,31.587-42.002,37.313-6.405,2.083-13.024,3.116-19.665,3.116ZM2017.316,690.282c-9.255,0-19.14,2.405-29.129,7.195-17.954,8.61-33.718,23.897-43.253,41.941-9.325,17.65-11.684,35.778-6.82,52.426,4.606,15.767,15.543,28.888,30.797,36.947,15.252,8.059,32.254,9.699,47.876,4.618,16.493-5.364,30.14-17.528,39.464-35.177,20.262-38.35,12.186-87.293-16.944-102.684-6.653-3.516-14.093-5.267-21.992-5.267Z"/>
            </g>
            <path d="M1962.068,735.857c-.459,0-.922-.143-1.319-.439-.976-.729-1.177-2.112-.447-3.088,8.45-11.313,19.769-20.738,31.87-26.542,15.817-7.584,31.027-8.326,42.83-2.089,1.077.569,1.489,1.904.92,2.982-.57,1.076-1.906,1.49-2.982.92-10.535-5.567-24.335-4.798-38.86,2.166-11.469,5.501-22.21,14.452-30.242,25.204-.433.58-1.098.886-1.77.886Z"/>
          </g>
        </g>
        <g>
          <path d="M1192.491,1838.398s55.51,185.194,295.418,188.219c260.114,3.281,393.291-284.671,340.531-496.156-26.727-107.132-80.047-125.21-80.047-125.21l-555.901,433.146Z"/>
          <g>
            <path d="M1233.45,1891.818s164.888,161.905,395.213-80.573c230.325-242.479,167.284-417.958,91.434-412.965-75.85,4.993-200.996,126.384-366.99,203.046-165.994,76.662-212.33,206.448-119.657,290.493Z" style="fill: #fff;"/>
            <path d="M1376.65,1946.962c-88.183.004-142.996-51.883-144.709-53.534-37.067-33.63-53.073-74.838-46.281-119.171,10.268-67.042,70.963-130.803,166.523-174.936,76.404-35.286,143.386-79.57,202.483-118.642,69.187-45.743,123.836-81.873,165.288-84.602,23.982-1.576,46.071,14.056,59.09,41.825,31.601,67.402,11.599,206.021-148.78,374.862-83.198,87.588-167.206,132.727-249.689,134.163-1.312.023-2.626.034-3.924.034ZM1723.24,1400.383c-.997,0-1.993.032-2.996.099-40.284,2.651-94.502,38.497-163.144,83.88-59.228,39.158-126.358,83.541-203.066,118.968-94.192,43.501-153.972,106.045-164.012,171.597-6.556,42.81,8.973,82.665,44.911,115.257.021.019.042.039.063.059.551.539,56.033,53.896,145.597,52.271,81.227-1.448,164.152-46.125,246.472-132.789,158.847-167.229,178.996-303.806,147.984-369.949-11.663-24.876-30.865-39.393-51.808-39.393Z"/>
          </g>
          <path d="M1353.108,1784.092s45.149,58.622,163.863-34.055c118.714-92.677,54.372-183.206-48.987-147.082-103.36,36.125-143.693,129.135-114.875,181.137Z"/>
          <path d="M1372.441,1717.021c-.262,0-.528-.047-.787-.146-1.138-.434-1.71-1.709-1.276-2.848,15.404-40.4,54.341-74.914,104.157-92.325,13.329-4.658,26.109-7.021,37.982-7.021,1.219,0,2.207.988,2.207,2.207s-.988,2.207-2.207,2.207c-11.377,0-23.666,2.279-36.525,6.774-48.604,16.987-86.544,50.531-101.489,89.731-.336.88-1.173,1.421-2.062,1.421Z" style="fill: #fff;"/>
        </g>
        <g>
          <g>
            <polygon points="612.174 583.53 484.049 583.53 503.98 728.42 592.243 728.42 612.174 583.53" style="fill: #fff;"/>
            <path d="M592.243,730.626h-88.264c-1.102,0-2.035-.813-2.186-1.906l-19.93-144.89c-.087-.632.103-1.27.523-1.751.419-.481,1.026-.756,1.664-.756h128.125c.638,0,1.244.276,1.664.756.419.481.61,1.119.523,1.751l-19.93,144.89c-.151,1.092-1.084,1.906-2.186,1.906ZM505.904,726.213h84.415l19.324-140.477h-123.063l19.324,140.477Z"/>
          </g>
          <g>
            <path d="M616.813,689.115h-137.404c-34.877,123.75-34.877,247.499,0,371.249h137.404c34.877-123.75,34.877-247.499,0-371.249Z" style="fill: #fff;"/>
            <path d="M616.813,1062.57h-137.404c-.988,0-1.855-.657-2.124-1.608-34.826-123.568-34.826-248.877,0-372.446.268-.951,1.136-1.608,2.124-1.608h137.404c.988,0,1.855.657,2.124,1.608,34.827,123.569,34.827,248.878,0,372.446-.268.951-1.136,1.608-2.124,1.608ZM481.082,1058.157h134.059c33.996-121.71,33.996-245.126,0-366.836h-134.059c-33.995,121.71-33.995,245.126,0,366.836Z"/>
          </g>
          <g>
            <rect x="375.295" y="867.052" width="345.632" height="1053.204" rx="34.331" ry="34.331" style="fill: #fff;"/>
            <path d="M686.596,1922.462h-276.969c-20.147,0-36.538-16.391-36.538-36.538v-984.542c0-20.147,16.391-36.538,36.538-36.538h276.969c20.147,0,36.538,16.39,36.538,36.538v984.542c0,20.147-16.391,36.538-36.538,36.538ZM409.627,869.259c-17.714,0-32.125,14.411-32.125,32.124v984.542c0,17.714,14.411,32.124,32.125,32.124h276.969c17.714,0,32.125-14.411,32.125-32.124v-984.542c0-17.714-14.411-32.124-32.125-32.124h-276.969Z"/>
          </g>
          <g>
            <rect x="464.497" y="665.485" width="167.229" height="28.595" style="fill: #fff;"/>
            <path d="M631.726,696.287h-167.229c-1.219,0-2.207-.988-2.207-2.207v-28.595c0-1.219.988-2.207,2.207-2.207h167.229c1.219,0,2.207.988,2.207,2.207v28.595c0,1.218-.988,2.207-2.207,2.207ZM466.703,691.874h162.816v-24.181h-162.816v24.181Z"/>
          </g>
          <path d="M710.443,1496.308h-322.827c-1.219,0-2.207-.988-2.207-2.207v-394.419c0-1.219.988-2.207,2.207-2.207h322.827c1.218,0,2.207.988,2.207,2.207v394.419c0,1.219-.988,2.207-2.207,2.207ZM389.822,1491.895h318.414v-390.006h-318.414v390.006Z"/>
          <g>
            <g>
              <path d="M556.542,1372.999l-121.271,181.98s-58.634-141.34,121.271-181.98Z" style="fill: #fff;"/>
              <path d="M435.27,1557.186c-.071,0-.142-.003-.214-.01-.81-.079-1.512-.599-1.824-1.351-.232-.56-22.912-56.573,3.787-108.145,19.427-37.528,59.477-63.379,119.037-76.833.877-.199,1.792.158,2.303.902.512.743.519,1.723.018,2.474l-121.271,181.981c-.412.618-1.102.983-1.836.983ZM551.608,1376.424c-55.237,13.466-92.458,38.106-110.67,73.285-21.706,41.93-9.574,86.943-5.078,100.408l115.748-173.693Z"/>
            </g>
            <g>
              <path d="M587.341,1299.064s-53.898-132.739,73.148-249.924c0,0,36.574,178.146-73.148,249.924Z" style="fill: #fff;"/>
              <path d="M587.341,1301.271c-.221,0-.443-.033-.658-.1-.629-.197-1.138-.665-1.387-1.276-.136-.336-13.631-34.19-11.228-81.959,2.216-44.053,18.748-109.378,84.924-170.417.585-.539,1.417-.721,2.173-.478.757.244,1.325.877,1.485,1.657.093.449,9.155,45.465,4.609,98.677-6.042,70.712-33.26,123.804-78.71,153.537-.363.238-.783.36-1.208.36ZM659.035,1053.517c-62.628,59.231-78.417,122.068-80.559,164.64-1.979,39.35,6.987,68.905,9.973,77.514,95.609-65.147,75.014-215.863,70.586-242.154Z"/>
            </g>
            <g>
              <path d="M563.846,1261.121s-88.152-80.818-70.828-222.316c0,0,91.607,87.57,70.828,222.316Z" style="fill: #fff;"/>
              <path d="M563.846,1263.327c-.543,0-1.077-.201-1.491-.58-.89-.816-88.79-83.216-71.527-224.211.101-.829.661-1.529,1.448-1.81.787-.281,1.666-.094,2.267.483.924.883,92.198,89.919,71.484,224.247-.124.805-.681,1.476-1.449,1.746-.239.084-.486.125-.732.125ZM494.679,1043.696c-12.942,120.979,52.531,197.009,67.618,212.753,15.823-115.405-51.906-195.858-67.618-212.753Z"/>
            </g>
            <path d="M536.254,1324.691c-43.555,31.713-108.58,37.481-132.985,3.963-24.405-33.518,1.053-93.63,44.608-125.343,43.555-31.713,88.715-23.017,113.119,10.501,24.405,33.518,18.813,79.166-24.743,110.879Z"/>
            <path d="M418.096,1274.316c-.26,0-.523-.046-.78-.143-1.14-.431-1.715-1.704-1.284-2.844,7.749-20.514,23.405-40.79,41.879-54.24,14.795-10.774,30.35-16.469,44.981-16.469,1.219,0,2.207.988,2.207,2.207s-.988,2.207-2.207,2.207c-13.691,0-28.347,5.402-42.383,15.623-17.807,12.964-32.891,32.49-40.348,52.232-.334.883-1.173,1.428-2.064,1.428Z" style="fill: #fff;"/>
            <path d="M635.022,1359.49c-18.837,50.477-69.893,91.156-108.738,76.66-38.845-14.496-50.769-78.678-31.931-129.155,18.837-50.477,61.301-68.134,100.146-53.638,38.845,14.496,59.36,55.656,40.523,106.133Z"/>
            <path d="M485.933,1368.428c-1.148,0-2.116-.887-2.199-2.05-1.436-20.166,1.601-41.53,8.551-60.154,9.173-24.581,24.267-42.696,43.651-52.386,18.235-9.117,39.306-10.021,59.334-2.548,1.142.426,1.722,1.697,1.296,2.838-.427,1.141-1.696,1.722-2.839,1.296-18.866-7.041-38.689-6.203-55.818,2.36-18.367,9.182-32.713,26.466-41.489,49.982-6.734,18.044-9.675,38.748-8.283,58.297.086,1.215-.828,2.271-2.045,2.358-.053.004-.106.005-.158.005Z" style="fill: #fff;"/>
          </g>
          <path d="M592.243,732.833h-88.264c-1.102,0-2.035-.814-2.186-1.906l-3.733-27.137c-.166-1.207.678-2.32,1.886-2.487,1.207-.168,2.321.678,2.487,1.886l3.472,25.231h84.415l3.56-25.877c.166-1.208,1.274-2.054,2.487-1.886,1.208.166,2.051,1.279,1.885,2.487l-3.822,27.783c-.151,1.093-1.084,1.906-2.186,1.906Z"/>
        </g>
        <g>
          <g>
            <path d="M1125.797,1700.573c-3.84,39.139-36.839,69.722-76.986,69.722-42.728,0-77.365-34.638-77.365-77.365,0-35.774,24.288-65.862,57.268-74.712-105.584-88.428-190.222-155.95-190.222-155.95l-281.316,119.732s38.201,347.956,19.368,352.973l593.897,227.823c201.024-107.02,239.682-191.981,239.682-191.981-51.046-63.959-168.845-170.889-284.325-270.24Z" style="fill: #fff;"/>
            <path d="M1170.439,2165c-.267,0-.535-.049-.791-.147l-593.897-227.823c-.892-.343-1.463-1.222-1.412-2.177.051-.955.711-1.769,1.636-2.015,2.206-1.522,8.731-19.042-4.474-178.741-7.084-85.678-16.425-171.007-16.519-171.859-.105-.968.434-1.89,1.33-2.271l281.315-119.731c.746-.316,1.606-.2,2.24.305.847.676,85.868,68.551,190.264,155.984.631.529.916,1.364.738,2.168-.178.804-.788,1.442-1.583,1.655-32.756,8.79-55.634,38.636-55.634,72.581,0,41.443,33.716,75.158,75.159,75.158,38.848,0,71.001-29.118,74.789-67.731.08-.819.61-1.526,1.375-1.833.762-.308,1.636-.163,2.26.376,145.457,125.14,241.213,216.162,284.61,270.536.518.649.627,1.534.283,2.29-1.591,3.497-41.259,86.864-240.654,193.015-.322.172-.679.259-1.036.259ZM580.386,1934.082l589.904,226.291c184.579-98.445,231.616-178.671,237.223-189.288-43.321-53.893-137.52-143.423-280.034-266.153-5.825,38.806-38.939,67.569-78.667,67.569-43.877,0-79.572-35.695-79.572-79.572,0-34.541,22.376-65.074,54.907-75.658-96.737-80.956-176.13-144.562-186.004-152.458l-278.597,118.573c1.342,12.376,9.995,92.923,16.575,173.036,11.225,136.672,8.127,169.361,4.265,177.659Z"/>
          </g>
          <g>
            <path d="M515.963,1979.659s-48.865-255.797,41.212-397.661l613.265,580.796-654.477-183.135Z" style="fill: #fff;"/>
            <path d="M1170.439,2165c-.197,0-.398-.026-.595-.082l-654.477-183.135c-.806-.226-1.416-.889-1.573-1.711-.122-.642-12.264-65.078-13.212-146.019-.876-74.826,7.907-179.499,54.729-253.238.353-.557.937-.926,1.591-1.007.656-.08,1.311.135,1.789.588l613.265,580.796c.737.698.903,1.807.403,2.69-.4.705-1.14,1.119-1.92,1.119ZM517.886,1977.905l644.564,180.361-604.837-572.815c-83.347,134.661-43.311,372.386-39.727,392.454Z"/>
          </g>
          <circle cx="1130.832" cy="1849.105" r="36.575"/>
          <circle cx="814.841" cy="1634.549" r="52.551" transform="translate(-563.489 436.249) rotate(-22.5)"/>
          <circle cx="1148.308" cy="2015.683" r="22.132" transform="translate(-1088.972 1402.356) rotate(-45)"/>
          <circle cx="680.004" cy="1837.257" r="30.407" transform="translate(-651.325 400.079) rotate(-22.5)"/>
          <circle cx="784.093" cy="1977.8" r="47.845"/>
        </g>
        <g>
          <g>
            <path d="M1611.208,2056.356c-.861,0-1.678-.506-2.033-1.349-.475-1.122.051-2.417,1.173-2.891,160.826-67.962,299.516-187.752,390.521-337.303.635-1.042,1.991-1.372,3.033-.738,1.041.634,1.371,1.991.738,3.032-45.688,75.079-102.616,142.366-169.205,199.991-66.972,57.957-142.125,104.751-223.369,139.083-.28.119-.571.175-.858.175Z"/>
            <path d="M2043.003,1643.834c-.32,0-.643-.069-.95-.216-1.1-.526-1.566-1.843-1.04-2.942,54.07-113.146,81.486-234.585,81.486-360.945,0-51.572-4.717-103.21-14.021-153.48-.222-1.198.57-2.349,1.768-2.571,1.204-.22,2.349.57,2.572,1.769,9.352,50.534,14.094,102.442,14.094,154.283,0,127.024-27.561,249.104-81.917,362.848-.379.792-1.169,1.256-1.992,1.256Z"/>
            <path d="M1806.722,1888.477c-.63,0-1.257-.269-1.694-.791-.782-.935-.658-2.326.277-3.108,176.186-147.379,277.235-363.511,277.235-592.977,0-1.219.988-2.207,2.207-2.207s2.207.988,2.207,2.207c0,230.776-101.625,448.142-278.817,596.362-.413.345-.915.514-1.415.514Z"/>
            <path d="M2079.818,1205.941c-1.108,0-2.062-.832-2.189-1.959-3.808-33.734-9.897-67.485-18.101-100.315-.295-1.182.424-2.38,1.607-2.676,1.172-.292,2.379.423,2.675,1.606,8.25,33.019,14.375,66.963,18.204,100.89.137,1.21-.734,2.303-1.945,2.44-.084.01-.168.014-.251.014Z"/>
          </g>
          <g>
            <path d="M757.333,682.269c-.576,0-1.152-.224-1.585-.671-.848-.875-.825-2.272.05-3.12,80.897-78.392,181.059-133.54,289.659-159.481,29.158-6.965,58.985-11.856,88.654-14.538,1.223-.105,2.286.786,2.396,1.999.11,1.214-.785,2.287-2,2.396-29.457,2.663-59.073,7.52-88.025,14.435-107.83,25.757-207.285,80.516-287.614,158.358-.429.415-.982.622-1.535.622Z"/>
            <path d="M702.066,678.226c-.576,0-1.152-.224-1.585-.671-.848-.875-.826-2.272.05-3.12,100.527-97.417,224.997-165.948,359.953-198.184,36.228-8.654,73.293-14.732,110.167-18.066,1.213-.104,2.287.786,2.396,1.999.11,1.214-.785,2.287-2,2.396-36.662,3.315-73.516,9.358-109.538,17.963-134.186,32.052-257.949,100.195-357.908,197.061-.429.415-.982.622-1.535.622Z"/>
            <path d="M722.628,630.181c-7.841,0-14.969-5.363-16.868-13.316-2.221-9.302,3.538-18.676,12.839-20.898,9.304-2.221,18.677,3.538,20.899,12.839,2.221,9.302-3.539,18.677-12.84,20.898-1.349.322-2.7.477-4.03.477ZM719.624,600.259c-6.934,1.656-11.228,8.646-9.572,15.58,1.656,6.933,8.637,11.227,15.58,9.572,6.934-1.656,11.229-8.645,9.573-15.58-1.657-6.934-8.648-11.227-15.581-9.572Z"/>
            <path d="M773.612,591.021c-.332,0-.664-.075-.971-.225-.685-.335-1.149-1.001-1.225-1.76-1.426-14.142-1.642-28.485-1.644-28.628-.011-.751.362-1.456.989-1.871.625-.414,1.42-.482,2.108-.179l27.608,12.173c.748.33,1.252,1.045,1.311,1.86.058.815-.337,1.596-1.03,2.029l-25.975,16.264c-.357.224-.764.337-1.171.337ZM774.268,563.799c.132,4.456.457,12.661,1.206,21.247l19.413-12.155-20.619-9.091Z"/>
            <path d="M818.557,558.163c-.037,0-.072,0-.109-.003-1.215-.059-2.154-1.088-2.098-2.304.027-.587.793-14.462,11.827-20.663,3.505-1.971,8.378-1.707,13.532-1.427,5.316.288,10.813.587,14.867-1.501,3.194-1.646,5.523-6.094,7.988-10.803,2.98-5.691,6.061-11.575,11.452-14.026,4.165-1.895,9.733-.078,15.118,1.679,4.453,1.453,9.06,2.958,11.679,1.93,3.381-1.325,5.668-5.996,7.688-10.117,1.525-3.111,2.841-5.798,4.664-7.306.938-.776,2.331-.645,3.107.295.776.94.644,2.33-.295,3.107-1.09.901-2.322,3.415-3.514,5.845-2.373,4.843-5.062,10.332-10.038,12.284-4.094,1.603-9.463-.148-14.661-1.843-4.579-1.495-9.313-3.041-11.923-1.856-4.01,1.823-6.733,7.025-9.367,12.055-2.675,5.111-5.442,10.395-9.877,12.68-5.12,2.637-11.498,2.29-17.127,1.985-4.495-.245-8.743-.475-11.131.867-8.875,4.988-9.574,16.905-9.58,17.025-.059,1.179-1.034,2.098-2.202,2.098Z"/>
          </g>
          <g>
            <path d="M1553.786,2063.471c-1.219,0-2.207-.988-2.207-2.207v-17.118c0-1.219.988-2.207,2.207-2.207s2.207.988,2.207,2.207v17.118c0,1.219-.988,2.207-2.207,2.207Z"/>
            <path d="M1553.786,2103.348c-1.219,0-2.207-.988-2.207-2.207v-17.118c0-1.219.988-2.207,2.207-2.207s2.207.988,2.207,2.207v17.118c0,1.219-.988,2.207-2.207,2.207Z"/>
            <path d="M1542.406,2074.85h-17.118c-1.219,0-2.207-.988-2.207-2.207s.988-2.207,2.207-2.207h17.118c1.218,0,2.207.988,2.207,2.207s-.988,2.207-2.207,2.207Z"/>
            <path d="M1582.283,2074.85h-17.118c-1.219,0-2.207-.988-2.207-2.207s.988-2.207,2.207-2.207h17.118c1.219,0,2.207.988,2.207,2.207s-.988,2.207-2.207,2.207Z"/>
          </g>
          <g>
            <path d="M2028.363,1239.29c-1.219,0-2.207-.988-2.207-2.207v-17.118c0-1.219.988-2.207,2.207-2.207s2.207.988,2.207,2.207v17.118c0,1.219-.988,2.207-2.207,2.207Z"/>
            <path d="M2028.363,1279.167c-1.219,0-2.207-.988-2.207-2.207v-17.118c0-1.219.988-2.207,2.207-2.207s2.207.988,2.207,2.207v17.118c0,1.219-.988,2.207-2.207,2.207Z"/>
            <path d="M2016.983,1250.67h-17.117c-1.219,0-2.207-.988-2.207-2.207s.988-2.207,2.207-2.207h17.117c1.219,0,2.207.988,2.207,2.207s-.988,2.207-2.207,2.207Z"/>
            <path d="M2056.861,1250.67h-17.118c-1.219,0-2.207-.988-2.207-2.207s.988-2.207,2.207-2.207h17.118c1.219,0,2.207.988,2.207,2.207s-.988,2.207-2.207,2.207Z"/>
          </g>
        </g>
        <path d="M1836.421,963.929c-.147,0-.295-.015-.444-.045-23.716-4.847-46.512-13.227-67.768-24.909h-91.435c-1.219,0-2.207-.988-2.207-2.207v-89.649c-20.992-36.517-32.086-78.187-32.086-120.543,0-10.644.697-21.353,2.073-31.832.159-1.208,1.263-2.063,2.476-1.9,1.208.159,2.059,1.267,1.901,2.475-1.351,10.288-2.036,20.805-2.036,31.257,0,41.781,10.993,82.878,31.79,118.848.194.336.296.717.296,1.104v88.033h89.796c.374,0,.74.095,1.068.275,21.006,11.609,43.553,19.928,67.016,24.723,1.194.244,1.964,1.41,1.721,2.604-.214,1.045-1.133,1.765-2.16,1.765Z" style="fill: #fff;"/>
        <path d="M1884.696,968.79c-16.4,0-32.791-1.651-48.72-4.907-1.194-.244-1.964-1.41-1.721-2.604.245-1.194,1.414-1.966,2.604-1.72,15.638,3.196,31.733,4.817,47.836,4.817,131.124,0,237.802-106.677,237.802-237.802s-106.677-237.802-237.802-237.802c-118.95,0-220.308,88.795-235.765,206.545-.161,1.209-1.275,2.058-2.476,1.901-1.208-.159-2.059-1.266-1.901-2.475,15.746-119.939,118.984-210.384,240.142-210.384,133.557,0,242.215,108.658,242.215,242.216s-108.658,242.215-242.215,242.215Z"/>
        <path d="M1523.502,640.648c-1.112,0-2.069-.838-2.192-1.968-.131-1.212.743-2.301,1.954-2.433,9.966-1.085,19.852-3.244,29.384-6.418,1.158-.386,2.406.241,2.79,1.396.385,1.156-.24,2.406-1.396,2.791-9.828,3.273-20.023,5.5-30.3,6.619-.082.009-.162.013-.241.013Z" style="fill: #fff;"/>
        <path d="M1450.123,665.366c-.246,0-.49-.041-.726-.123-.553-.193-1.006-.597-1.261-1.124l-23.375-48.406c-20.985-14.381-37.946-34.142-49.071-57.178-35.187-72.863-4.535-160.769,68.328-195.956,72.861-35.186,160.768-4.535,195.956,68.329,35.187,72.863,4.535,160.769-68.328,195.956-5.707,2.756-11.63,5.162-17.603,7.151-1.158.386-2.405-.24-2.791-1.396-.385-1.156.24-2.406,1.396-2.79,5.794-1.93,11.54-4.264,17.077-6.938,70.673-34.129,100.402-119.39,66.274-190.063-34.131-70.673-119.398-100.402-190.063-66.274-70.673,34.129-100.402,119.39-66.274,190.063,10.875,22.519,27.496,41.808,48.068,55.781.321.218.579.516.747.866l22.673,46.949,47.905-23.135c.336-.162.692-.239,1.082-.216,7.698.424,15.481.217,23.127-.615,1.237-.133,2.302.745,2.433,1.955.132,1.211-.743,2.3-1.954,2.432-7.696.837-15.526,1.061-23.278.665l-49.382,23.847c-.303.146-.63.22-.96.22Z"/>
        <g>
          <g>
            <g>
              <path d="M1604.654,404.417s-55.69,8.255-31.837,56.028c12.433,24.902,56.386,27.078,83.988,3.714,29.875-25.287,19.359-55.92,5.96-68.882-13.398-12.962-51.395-11.342-58.111,9.139Z" style="fill: #fff;"/>
              <path d="M1611.956,482.668c-4.219,0-8.385-.402-12.413-1.229-13.445-2.763-23.638-9.868-28.7-20.008-7.152-14.324-8.098-26.733-2.81-36.881,8.353-16.036,29.443-21.032,34.983-22.087,3.109-7.807,10.644-13.528,21.383-16.185,14.874-3.68,31.655-.562,39.9,7.415,7.071,6.841,14.446,19.577,13.94,34.806-.457,13.739-7.376,26.653-20.009,37.346-12.702,10.751-29.875,16.824-46.274,16.824ZM1637.149,389.17c-3.906,0-7.884.449-11.69,1.391-5.665,1.402-15.63,5.155-18.709,14.543-.26.793-.946,1.372-1.771,1.495-.246.037-24.643,3.859-33.041,20.004-4.588,8.821-3.629,19.876,2.852,32.856,4.444,8.901,13.551,15.172,25.641,17.657,18.405,3.782,39.973-1.966,54.947-14.641,11.655-9.865,18.035-21.665,18.449-34.124.458-13.786-6.207-25.305-12.597-31.488-5.073-4.908-14.355-7.694-24.081-7.694ZM1604.654,404.417h.022-.022Z"/>
            </g>
            <path d="M1600.857,401.121s-14.871-5.785-21.595-.289l15.58,8.551s-17.296,7.233-8.972,18.428c0,0,14.964.311,19.792-15.944,0,0,9.073,16.498,20.164,12.836,0,0,5.285-16.191-13.09-18.1l15.812-7.719s-20.962-13.653-27.69,2.236Z"/>
            <path d="M1661.289,410.181c1.876,5.229.121,10.644-3.92,12.094-4.042,1.45-8.839-1.612-10.716-6.841-1.876-5.229-.121-10.643,3.92-12.094,4.042-1.45,8.839,1.613,10.716,6.841Z"/>
          </g>
          <g>
            <g>
              <path d="M1539.489,447.843s-69.811-4.631-53.414,59.67c8.547,33.518,61.357,47.727,101.03,26.616,42.94-22.85,38.229-62.822,25.368-82.091-12.862-19.27-59.437-27.302-72.984-4.194Z" style="fill: #fff;"/>
              <path d="M1546.375,546.227c-11.599,0-23.037-2.206-33.147-6.673-15.449-6.826-25.851-18.012-29.289-31.497-4.872-19.104-2.791-34.264,6.186-45.059,14.431-17.355,41.749-17.611,48.172-17.418,5.694-8.668,16.27-13.639,29.964-14.038,18.87-.547,38.23,7.554,46.048,19.269,6.724,10.074,12.276,27.32,7.696,45.513-4.132,16.416-15.842,30.162-33.862,39.751-12.65,6.732-27.331,10.151-41.767,10.151ZM1536.663,449.984c-7.866,0-31.068,1.296-43.157,15.85-8.012,9.646-9.793,23.485-5.292,41.133,3.096,12.144,12.614,22.284,26.798,28.551,21.501,9.501,49.392,8.19,71.057-3.338,16.89-8.988,27.836-21.759,31.655-36.932,4.228-16.793-.889-32.7-7.086-41.986-6.92-10.367-25.095-17.803-42.248-17.307-7.361.215-20.657,2.19-26.996,13.004-.421.72-1.212,1.146-2.048,1.086-.054-.003-1.03-.061-2.682-.061Z"/>
            </g>
            <path d="M1535.746,442.84s-16.539-10.939-26.152-6.034l16.672,14.486s-22.91,4.233-15.747,20.021c0,0,18.092,4.316,28.234-14.156,0,0,6.677,22.426,21.111,20.897,0,0,10.681-18.274-11.135-25.428l21.236-5.213s-21.865-22.099-34.22-4.572Z"/>
            <path d="M1613.484,477.976c.903,6.844-2.653,12.959-7.944,13.657-5.29.698-10.311-4.285-11.214-11.129-.903-6.845,2.654-12.959,7.944-13.657,5.29-.698,10.311,4.285,11.214,11.129Z"/>
          </g>
          <g>
            <g>
              <path d="M1484.449,479.24s-48.987-49.952-79.585,8.931c-15.949,30.693,13.977,76.467,57.63,87.144,47.248,11.556,70.358-21.396,73.6-44.336,3.241-22.94-26.149-59.953-51.645-51.74Z" style="fill: #fff;"/>
              <path d="M1481.121,579.884c-6.119,0-12.526-.805-19.15-2.425-25.103-6.14-47.946-24.708-58.196-47.302-6.977-15.382-7.286-30.654-.869-43.003,9.09-17.494,20.741-27.416,34.627-29.489,22.313-3.332,42.863,14.662,47.533,19.094,10.017-2.673,21.219.664,31.698,9.486,14.437,12.153,23.485,31.097,21.514,45.044-1.695,11.992-9.04,28.554-24.573,39.074-9.335,6.322-20.386,9.522-32.585,9.522ZM1443.024,461.676c-1.611,0-3.23.113-4.856.357-12.401,1.858-22.947,10.995-31.346,27.156-5.778,11.121-5.434,25.023.973,39.145,9.71,21.408,31.387,39.008,55.225,44.839,18.586,4.546,35.256,2.31,48.211-6.463,14.339-9.711,21.117-24.983,22.678-36.038,1.744-12.342-6.848-29.99-19.987-41.05-5.633-4.743-16.868-12.123-28.797-8.281-.794.256-1.666.041-2.251-.554-.203-.206-19.043-19.11-39.851-19.11Z"/>
            </g>
            <path d="M1484.989,473.015s-5.05-19.175-15.487-21.92l2.787,21.91s-19.908-12.102-25.081,4.445c0,0,10.62,15.27,30.488,8.247,0,0-9.956,21.175,1.829,29.648,0,0,20.138-6.517,8.631-26.384l19.312,10.256s-1.59-31.048-22.479-26.203Z"/>
            <path d="M1435.549,494.335c-3.885,5.707-10.611,7.899-15.022,4.895-4.411-3.003-4.837-10.064-.952-15.771,3.885-5.707,10.611-7.899,15.022-4.895,4.411,3.003,4.837,10.064.952,15.771Z"/>
          </g>
          <path d="M1484.447,481.447c-1.12,0-2.078-.848-2.194-1.985-.167-1.658-3.834-40.886,19.666-64.678,7.683-7.779,19.359-15.738,31.721-24.164,23.898-16.29,50.984-34.753,48.204-53.082-.183-1.205.646-2.33,1.851-2.513,1.2-.182,2.329.645,2.513,1.85,3.197,21.074-23.888,39.536-50.082,57.391-12.18,8.302-23.684,16.144-31.067,23.619-22.055,22.329-18.454,60.748-18.415,61.133.122,1.213-.762,2.295-1.974,2.417-.075.008-.151.011-.224.011Z"/>
          <path d="M1537.046,450.673c-.71,0-1.407-.342-1.834-.976-.815-1.212-19.796-29.994-5.359-56.205.589-1.068,1.933-1.456,2.997-.868,1.068.588,1.457,1.93.868,2.997-13.152,23.878,4.971,51.339,5.157,51.614.68,1.011.41,2.382-.6,3.062-.378.254-.806.376-1.229.376Z"/>
          <path d="M1603.906,409.66c-.839,0-1.642-.482-2.01-1.296-.158-.349-.214-.662-.364-1.496-3.904-21.756-17.932-33.036-39.475-31.769-1.206.068-2.261-.856-2.332-2.073-.072-1.217.855-2.261,2.073-2.333,24.071-1.411,39.728,11.152,44.078,35.395.053.298.092.524.123.666.355,1.059-.142,2.236-1.182,2.708-.296.134-.605.197-.91.197Z"/>
        </g>
      </g>
    </g>
  </g>
</svg>