<svg width="146" height="40" viewBox="0 0 146 40" fill="none" xmlns="http://www.w3.org/2000/svg">
<rect width="40" height="40" rx="20" fill="#702DFF"/>
<path d="M20 10C20 10 20.5518 15.1499 22.7009 17.2991C24.8501 19.4482 30 20 30 20C30 20 24.8501 20.5518 22.7009 22.7009C20.5518 24.8501 20 30 20 30C20 30 19.4482 24.8501 17.2991 22.7009C15.1499 20.5518 10 20 10 20C10 20 15.1499 19.4482 17.2991 17.2991C19.4482 15.1499 20 10 20 10Z" fill="white"/>
<path d="M60.4432 18.5795H57.6023C57.5644 18.2879 57.4867 18.0246 57.3693 17.7898C57.2519 17.5549 57.0966 17.3542 56.9034 17.1875C56.7102 17.0208 56.4811 16.8939 56.2159 16.8068C55.9545 16.7159 55.6648 16.6705 55.3466 16.6705C54.7822 16.6705 54.2955 16.8087 53.8864 17.0852C53.4811 17.3617 53.1686 17.7614 52.9489 18.2841C52.733 18.8068 52.625 19.4394 52.625 20.1818C52.625 20.9545 52.7348 21.6023 52.9545 22.125C53.178 22.6439 53.4905 23.036 53.892 23.3011C54.2973 23.5625 54.7765 23.6932 55.3295 23.6932C55.6402 23.6932 55.9223 23.6534 56.1761 23.5739C56.4337 23.4943 56.6591 23.3788 56.8523 23.2273C57.0492 23.072 57.2102 22.8845 57.3352 22.6648C57.464 22.4413 57.553 22.1894 57.6023 21.9091L60.4432 21.9261C60.3939 22.4413 60.2443 22.9489 59.9943 23.4489C59.7481 23.9489 59.4091 24.4053 58.9773 24.8182C58.5455 25.2273 58.0189 25.553 57.3977 25.7955C56.7803 26.0379 56.072 26.1591 55.2727 26.1591C54.2197 26.1591 53.2765 25.928 52.4432 25.4659C51.6136 25 50.9583 24.322 50.4773 23.4318C49.9962 22.5417 49.7557 21.4583 49.7557 20.1818C49.7557 18.9015 50 17.8163 50.4886 16.9261C50.9773 16.036 51.6383 15.3598 52.4716 14.8977C53.3049 14.4356 54.2386 14.2045 55.2727 14.2045C55.9773 14.2045 56.6288 14.303 57.2273 14.5C57.8258 14.6932 58.3523 14.9773 58.8068 15.3523C59.2614 15.7235 59.6307 16.1799 59.9148 16.7216C60.1989 17.2633 60.375 17.8826 60.4432 18.5795ZM73.0355 20.1818C73.0355 21.4621 72.7893 22.5473 72.2969 23.4375C71.8045 24.3277 71.1378 25.0038 70.2969 25.4659C69.4598 25.928 68.5204 26.1591 67.4787 26.1591C66.4332 26.1591 65.492 25.9261 64.6548 25.4602C63.8177 24.9943 63.1529 24.3182 62.6605 23.4318C62.1719 22.5417 61.9276 21.4583 61.9276 20.1818C61.9276 18.9015 62.1719 17.8163 62.6605 16.9261C63.1529 16.036 63.8177 15.3598 64.6548 14.8977C65.492 14.4356 66.4332 14.2045 67.4787 14.2045C68.5204 14.2045 69.4598 14.4356 70.2969 14.8977C71.1378 15.3598 71.8045 16.036 72.2969 16.9261C72.7893 17.8163 73.0355 18.9015 73.0355 20.1818ZM70.1605 20.1818C70.1605 19.4242 70.0526 18.7841 69.8366 18.2614C69.6245 17.7386 69.3177 17.3428 68.9162 17.0739C68.5185 16.8049 68.0393 16.6705 67.4787 16.6705C66.9219 16.6705 66.4427 16.8049 66.0412 17.0739C65.6397 17.3428 65.331 17.7386 65.1151 18.2614C64.9029 18.7841 64.7969 19.4242 64.7969 20.1818C64.7969 20.9394 64.9029 21.5795 65.1151 22.1023C65.331 22.625 65.6397 23.0208 66.0412 23.2898C66.4427 23.5587 66.9219 23.6932 67.4787 23.6932C68.0393 23.6932 68.5185 23.5587 68.9162 23.2898C69.3177 23.0208 69.6245 22.625 69.8366 22.1023C70.0526 21.5795 70.1605 20.9394 70.1605 20.1818ZM81.7173 14.3636H84.5241V21.8693C84.5241 22.7367 84.3177 23.4924 83.9048 24.1364C83.492 24.7765 82.9162 25.2727 82.1776 25.625C81.4389 25.9735 80.581 26.1477 79.6037 26.1477C78.6151 26.1477 77.7514 25.9735 77.0128 25.625C76.2741 25.2727 75.7003 24.7765 75.2912 24.1364C74.8821 23.4924 74.6776 22.7367 74.6776 21.8693V14.3636H77.4901V21.625C77.4901 22.0265 77.5772 22.3845 77.7514 22.6989C77.9295 23.0133 78.1776 23.2595 78.4957 23.4375C78.8139 23.6155 79.1832 23.7045 79.6037 23.7045C80.0241 23.7045 80.3916 23.6155 80.706 23.4375C81.0241 23.2595 81.2723 23.0133 81.4503 22.6989C81.6283 22.3845 81.7173 22.0265 81.7173 21.625V14.3636ZM86.2869 26V14.3636H91.0938C91.965 14.3636 92.7169 14.5208 93.3494 14.8352C93.9858 15.1458 94.4763 15.5928 94.821 16.1761C95.1657 16.7557 95.3381 17.4432 95.3381 18.2386C95.3381 19.0455 95.1619 19.7311 94.8097 20.2955C94.4574 20.8561 93.9574 21.2841 93.3097 21.5795C92.6619 21.8712 91.8949 22.017 91.0085 22.017H87.9688V19.8011H90.4858C90.91 19.8011 91.2642 19.7462 91.5483 19.6364C91.8362 19.5227 92.054 19.3523 92.2017 19.125C92.3494 18.8939 92.4233 18.5985 92.4233 18.2386C92.4233 17.8788 92.3494 17.5814 92.2017 17.3466C92.054 17.108 91.8362 16.9299 91.5483 16.8125C91.2604 16.6913 90.9063 16.6307 90.4858 16.6307H89.0994V26H86.2869ZM92.8381 20.6818L95.7358 26H92.6676L89.8267 20.6818H92.8381ZM103.17 17.8523C103.133 17.4356 102.964 17.1117 102.665 16.8807C102.369 16.6458 101.947 16.5284 101.398 16.5284C101.034 16.5284 100.731 16.5758 100.489 16.6705C100.246 16.7652 100.064 16.8958 99.9432 17.0625C99.822 17.2254 99.7595 17.4129 99.7557 17.625C99.7481 17.7992 99.7822 17.9527 99.858 18.0852C99.9375 18.2178 100.051 18.3352 100.199 18.4375C100.35 18.536 100.532 18.6231 100.744 18.6989C100.956 18.7746 101.195 18.8409 101.46 18.8977L102.46 19.125C103.036 19.25 103.544 19.4167 103.983 19.625C104.426 19.8333 104.797 20.0814 105.097 20.3693C105.4 20.6572 105.629 20.9886 105.784 21.3636C105.939 21.7386 106.019 22.1591 106.023 22.625C106.019 23.3598 105.833 23.9905 105.466 24.517C105.098 25.0436 104.57 25.447 103.881 25.7273C103.195 26.0076 102.367 26.1477 101.398 26.1477C100.424 26.1477 99.5758 26.0019 98.8523 25.7102C98.1288 25.4186 97.5663 24.9754 97.1648 24.3807C96.7633 23.786 96.5568 23.0341 96.5455 22.125H99.2386C99.2614 22.5 99.3617 22.8125 99.5398 23.0625C99.7178 23.3125 99.9621 23.5019 100.273 23.6307C100.587 23.7595 100.951 23.8239 101.364 23.8239C101.742 23.8239 102.064 23.7727 102.33 23.6705C102.598 23.5682 102.805 23.4261 102.949 23.2443C103.093 23.0625 103.167 22.8542 103.17 22.6193C103.167 22.3996 103.098 22.2121 102.966 22.0568C102.833 21.8977 102.629 21.7614 102.352 21.6477C102.08 21.5303 101.731 21.4223 101.307 21.3239L100.091 21.0398C99.0833 20.8087 98.2898 20.4356 97.7102 19.9205C97.1307 19.4015 96.8428 18.7008 96.8466 17.8182C96.8428 17.0985 97.036 16.4678 97.4261 15.9261C97.8163 15.3845 98.3561 14.9621 99.0455 14.6591C99.7348 14.3561 100.521 14.2045 101.403 14.2045C102.305 14.2045 103.087 14.358 103.75 14.6648C104.417 14.9678 104.934 15.3939 105.301 15.9432C105.669 16.4924 105.856 17.1288 105.864 17.8523H103.17ZM114.483 14.3636H117.29V21.8693C117.29 22.7367 117.083 23.4924 116.67 24.1364C116.258 24.7765 115.682 25.2727 114.943 25.625C114.205 25.9735 113.347 26.1477 112.369 26.1477C111.381 26.1477 110.517 25.9735 109.778 25.625C109.04 25.2727 108.466 24.7765 108.057 24.1364C107.648 23.4924 107.443 22.7367 107.443 21.8693V14.3636H110.256V21.625C110.256 22.0265 110.343 22.3845 110.517 22.6989C110.695 23.0133 110.943 23.2595 111.261 23.4375C111.58 23.6155 111.949 23.7045 112.369 23.7045C112.79 23.7045 113.157 23.6155 113.472 23.4375C113.79 23.2595 114.038 23.0133 114.216 22.6989C114.394 22.3845 114.483 22.0265 114.483 21.625V14.3636ZM119.053 26V14.3636H127.166V16.6477H121.865V19.0341H126.751V21.3239H121.865V23.7159H127.166V26H119.053Z" fill="url(#paint0_linear_10_1165)"/>
<defs>
<linearGradient id="paint0_linear_10_1165" x1="45.8541" y1="20.4082" x2="151.768" y2="20.4082" gradientUnits="userSpaceOnUse">
<stop stop-color="#702DFF"/>
<stop offset="0.297312" stop-color="#7550FB"/>
<stop offset="0.707421" stop-color="#4A3AFF"/>
<stop offset="0.961935" stop-color="#4A3AFF"/>
</linearGradient>
</defs>
</svg>
